<?xml version="1.0" encoding="UTF-8" standalone="no"?>
<svg
   width="1500"
   height="1500"
   viewBox="0 0 1500 1500"
   version="1.1"
   id="svg42"
   xml:space="preserve"
   xmlns:xlink="http://www.w3.org/1999/xlink"
   xmlns="http://www.w3.org/2000/svg"
   xmlns:svg="http://www.w3.org/2000/svg"><defs
     id="defs42" /><g
     id="g45"
     transform="matrix(1.4628807,0,0,1.4628807,7.7982851,30.724567)"><g
       id="g46"
       transform="translate(0,-38.284162)"><path
         fill="#106888"
         d="m 476.374,198.959 c 14.141,-1.435 41.426,-0.793 55.797,-0.728 2.069,13.304 3.985,26.631 5.747,39.979 9.755,0.341 20.924,3.406 30.339,5.902 7.007,-11.418 13.885,-22.915 20.634,-34.488 15.71,4.201 30.073,9.699 45.346,15.205 -1.795,13.667 -4.498,27.199 -8.09,40.507 6.177,3.163 12.683,7.037 18.753,10.507 10.977,-7.568 21.101,-18.47 32.34,-26.403 9.989,5.562 31.166,22.648 39.951,30.443 -5.104,11.003 -13.632,24.823 -19.843,35.487 5.086,6.136 14.893,14.891 20.964,20.581 13.568,-4.731 25.378,-11.266 38.106,-15.875 8.265,13.212 18.534,27.613 27.376,40.621 -8.43,8.465 -21.707,20.366 -30.918,27.991 l 10.782,23.18 42.675,-1.201 c 1.936,11.138 5.025,24.034 7.364,35.303 -6.401,6.111 -12.545,13.107 -18.519,19.684 -21.926,0.723 -44.626,0.12 -66.65,0.053 -10.316,-41.77 -36.96,-84.188 -69.027,-112.89 -3.825,-3.423 -11.703,-7.519 -16.492,-11.165 l -0.639,-0.491 c -8.016,8.905 -21.276,23.336 -27.612,33.021 l -0.211,21.393 c 12.358,8.063 15.734,12.543 16.565,27.651 l 17.417,0.062 -0.024,8.626 -17.416,0.2 -0.054,19.066 23.501,-0.016 c 9.742,-8.489 19.355,-8.625 19.579,7.89 0.066,4.876 -5.833,9.209 -10.384,7.759 -3.755,-0.765 -6.235,-2.616 -9.238,-4.83 l -23.504,-0.082 c 0.017,6.187 0.111,12.559 0.019,18.729 7.171,0.075 19.787,0.615 26.221,-1.023 -0.018,3.955 -0.14,8.467 0.078,12.37 l -26.17,0.042 c 0.007,6.25 -0.055,12.631 0.033,18.868 6.296,0.112 20.494,0.637 25.97,-0.846 -0.041,4.122 -0.157,8.366 0.114,12.468 -8.712,-0.09 -17.425,-0.129 -26.138,-0.117 0.036,6.362 -0.009,12.92 0.131,19.263 8.351,0.009 17.539,0.198 25.805,-0.317 -0.057,3.64 -0.257,8.268 -0.05,11.825 -8.657,-0.13 -17.316,-0.173 -25.975,-0.129 l 0.074,20.238 c 7.83,-0.056 16.138,0.026 23.927,-0.212 1.423,-1.541 2.972,-3.3 4.43,-4.774 4.773,-0.072 9.082,-0.422 12.6,3.033 6.562,6.444 2.124,18.503 -7.563,17.412 -4.036,-0.454 -6.833,-3.059 -10.638,-4.057 -6.843,-1.016 -15.86,-0.633 -22.867,-0.579 0.021,6.183 0.16,12.778 0.039,18.925 5.842,-0.018 12.229,0.076 18.022,-0.136 l 0.061,8.604 c -6.046,0.295 -12.098,0.438 -18.151,0.428 -1.131,16.241 -3.93,20.095 -16.803,29.959 -0.09,6.538 -0.093,13.077 -0.01,19.615 7.491,10.163 22.057,23.852 28.094,33.228 -2.015,1.926 -7.292,6.767 -8.819,8.737 -8.104,-8.473 -24.284,-25.946 -30.749,-35.525 -0.196,-8.329 -0.3,-16.66 -0.312,-24.991 -8.619,-0.17 -17.241,-0.155 -25.86,0.045 -0.018,9.72 -0.236,20.315 0.182,29.96 22.393,27.333 -34.756,24.474 -11.019,0.177 -0.104,-10.074 -0.128,-20.149 -0.071,-30.223 -7.146,-0.11 -14.113,-0.254 -21.259,-0.019 -0.158,10.194 -0.205,20.389 -0.141,30.583 2.43,2.299 6.166,6.879 5.778,10.13 -1.845,15.462 -35.377,7.995 -16.565,-9.507 l 0.039,-31.478 c -6.871,-0.012 -13.864,-0.128 -20.713,0.263 l -0.072,31.413 c 9.107,9.934 7.229,18.778 -8.203,19.101 -5.006,0.104 -9.967,-5.149 -8.428,-10.088 0.808,-3.606 2.997,-6.216 5.298,-8.978 0.183,-10.445 0.193,-20.892 0.031,-31.337 -6.937,-0.146 -13.877,-0.166 -20.816,-0.06 -0.021,10.239 0.032,20.479 0.161,30.717 19.642,19.081 -17.228,26.38 -16.704,8.983 0.099,-3.305 3.538,-7.198 5.824,-9.575 -0.307,-10.084 0.266,-20.044 -0.105,-30.069 l -21.237,0.05 -0.122,30.437 c 6.025,5.061 9.652,11.259 1.538,16.835 -6.088,4.184 -18.27,2.26 -17.68,-6.828 0.251,-4.347 2.79,-7.376 5.329,-10.751 0.13,-10.004 0.105,-20.01 -0.073,-30.013 -8.672,-0.087 -17.346,-0.018 -26.015,0.207 -0.357,8.676 -0.103,17.109 -0.355,25.635 -6.42,8.578 -22.846,27.78 -30.48,35.192 -3.769,-3.519 -3.507,-4.89 -9.036,-7.972 1.78,-3.019 6.226,-7.862 8.596,-10.691 6.524,-7.79 13.833,-15.421 19.615,-23.778 0.274,-6.615 0.096,-12.889 -0.049,-19.503 -13.802,-8.964 -15.918,-13.901 -17.482,-29.867 -6.539,-0.417 -12.252,-0.465 -18.81,-0.473 l -0.105,-8.512 c 5.217,-0.408 13.645,-0.157 19.101,-0.146 -0.007,-6.118 -0.149,-12.649 0.247,-18.726 -7.342,-0.203 -16.233,-0.177 -23.532,0.173 -2.858,2.87 -5.829,5.202 -10.057,5.378 -2.532,0.122 -5.007,-0.786 -6.861,-2.515 -11.05,-10.174 4.845,-27.936 15.978,-13.613 l 24.366,-0.209 c -0.205,-6.273 -0.128,-13.135 -0.187,-19.457 -8.519,-0.056 -16.149,0.005 -24.639,0.464 0.038,-3.79 -0.301,-8.329 -0.489,-12.17 8.357,0.038 16.714,0.026 25.071,-0.035 l 0.008,-19.364 c -8.037,-0.43 -17.256,-0.093 -25.263,0.241 0.316,-2.726 0.126,-9.654 0.126,-12.7 3.684,2.001 19.872,0.937 25.202,0.783 l -0.005,-18.673 c -8.444,-0.46 -16.567,-0.102 -25.01,0.111 0.079,-3.784 -0.119,-8.389 -0.176,-12.238 5.9,0.848 18.633,0.436 25.175,0.357 l -0.023,-18.668 c -7.788,-0.116 -15.808,-0.004 -23.615,0.01 -19.476,19.014 -28.608,-14.065 -10.606,-16.924 3.445,-0.547 8.427,3.447 10.866,5.999 l 23.554,0.156 c -0.275,-6.014 -0.13,-13.028 -0.132,-19.13 -6.133,-0.175 -12.456,-0.178 -18.607,-0.256 l -0.051,-8.533 18.49,-0.026 c 0.404,-14.723 4.713,-21.42 17.769,-27.923 0.064,-5.962 0.931,-18.924 -2.124,-23.365 -3.312,-4.813 -21.73,-28.946 -25.489,-29.851 -5.122,2.441 -13.613,6.041 -17.861,9.667 -36.362,31.042 -56.8,68.899 -69.38,114.166 -22.452,0.614 -44.454,0.199 -66.908,-0.163 -5.426,-5.228 -12.387,-13.443 -17.803,-19.25 0.506,-8.99 3.834,-24.114 5.341,-33.704 14.777,-0.171 28.685,0.495 43.427,1.208 2.497,-8.061 5.845,-16.322 8.897,-24.23 -9.423,-7.633 -19.764,-18.737 -30.228,-27.454 3.647,-8.26 20.214,-32.859 26.065,-42.056 13.141,4.273 26.031,10.665 39.274,15.413 7.174,-6.682 14.701,-14.816 21.903,-21.817 -6.573,-10.501 -16.082,-24.836 -21.379,-35.714 8.65,-9.03 31.121,-25.345 42.077,-33.997 11.421,10.88 21.173,20.221 33.9,29.494 5.235,-3.473 9.915,-5.916 15.464,-8.812 -3.501,-12.079 -7.435,-26.488 -9.192,-38.885 14.188,-6.401 29.559,-11.541 44.291,-16.689 7.514,10.768 14.985,24.199 22.376,35.572 9.351,-2.914 19.962,-4.67 29.599,-6.246 0.49,-11.505 2.769,-27.971 4.071,-39.639 z m -65.168,167.909 c 0.267,9.191 0.084,18.267 0.181,27.435 l 26.688,0.016 -0.28,-31.157 c -1.86,-1.75 -3.625,-3.316 -5.262,-5.284 -0.201,-7.319 1.311,-14.981 10.68,-14.496 2.948,0.13 5.719,1.445 7.683,3.648 2.772,3.081 2.57,5.792 2.661,9.691 -1.702,2.788 -3.072,4.856 -4.982,7.505 -0.249,10.011 -0.334,20.026 -0.255,30.04 7.022,-0.015 14.939,-0.216 21.887,-0.005 0.041,-10.541 -0.13,-21.082 -0.514,-31.616 -22.876,-24.209 33.343,-25.33 10.851,0.637 -0.028,10.198 -0.194,20.736 0.023,30.906 6.154,-0.163 14.8,-0.444 20.899,0.026 -0.117,-10.908 -0.15,-21.817 -0.1,-32.726 -3.063,-3.071 -6.025,-6.362 -6.13,-10.888 -0.124,-5.348 7.147,-9.6 11.908,-8.812 13.54,2.239 13.779,11.303 5.477,19.649 -0.103,10.965 -0.093,21.931 0.03,32.896 h 21.384 c -0.038,-9.235 0.28,-22.489 -0.269,-31.389 -2.785,-2.979 -5.704,-5.963 -5.398,-10.39 0.774,-11.151 23.203,-11.897 21.127,1.073 -0.662,4.134 -2.98,7.126 -5.322,10.454 -0.148,8.6 -0.608,21.823 0.066,30.236 l 21.819,0.007 -0.448,-31.345 c -9.052,-8.849 -8.005,-17.552 6.655,-19.28 5.18,-0.61 10.719,5.478 9.319,10.527 -0.639,4.534 -2.387,6.343 -5.073,9.769 l -0.041,30.214 c 8.744,0.028 17.487,-10e-4 26.23,-0.09 -0.178,-8.816 -0.152,-17.635 0.078,-26.45 4.573,-7.259 23.684,-28.099 30.115,-35.012 -20.256,-12.926 -43.044,-23.663 -66.475,-29.558 -44.343,-11.156 -95.371,-9.401 -138.519,6.025 -16.289,5.823 -31.687,14.007 -46.467,22.789 8.691,9.263 16.597,19.437 25.009,28.966 1.69,1.915 3.266,3.92 4.765,5.989 z m 250.655,-73.015 c -14.047,0.607 -24.946,12.483 -24.347,26.531 0.599,14.048 12.469,24.953 26.518,24.362 14.059,-0.593 24.973,-12.474 24.374,-26.532 -0.6,-14.059 -12.486,-24.968 -26.545,-24.361 z m -291.654,43.109 c 0.987,-1.027 1.887,-2.135 2.69,-3.311 7.73,-11.328 5.153,-26.737 -5.843,-34.933 -10.996,-8.197 -26.498,-6.265 -35.146,4.38 -8.648,10.644 -7.364,26.214 2.91,35.298 10.274,9.085 25.884,8.452 35.389,-1.434 z m 43.246,71.692 c -11.367,2.194 -16.294,6.705 -16.662,18.568 -0.383,12.331 -0.261,24.611 -0.23,36.946 l 0.087,61.987 0.009,53.797 c 0.006,11.075 -0.579,24.979 1.342,35.828 2.982,8.776 10.626,11.828 18.551,11.98 24.258,0.467 48.385,0.144 72.605,0.057 36.646,-0.132 73.948,1.311 110.495,-0.097 18.666,-2.848 16.722,-15.071 16.951,-30.19 0.141,-9.322 0.014,-18.747 -0.005,-28.073 l -0.052,-71.698 -0.017,-49.091 c -0.009,-8.748 0.363,-17.882 -0.629,-26.524 -0.787,-6.861 -8.13,-12.955 -14.931,-13.271 -10.789,-0.501 -21.622,-0.368 -32.426,-0.375 l -57.738,-0.006 -63.274,-0.003 c -9.725,-0.006 -24.7,-0.454 -34.076,0.165 z"
         id="path1"
         style="fill:#006495;fill-opacity:1" /><path
         fill="#343333"
         d="m 349.9,306.823 c 6.874,-1.075 13.314,3.637 14.368,10.515 1.055,6.878 -3.679,13.303 -10.56,14.336 -6.85,1.027 -13.24,-3.68 -14.29,-10.527 -1.049,-6.847 3.638,-13.253 10.482,-14.324 z"
         id="path2" /><path
         fill="#343333"
         d="m 476.374,198.959 c 14.141,-1.435 41.426,-0.793 55.797,-0.728 2.069,13.304 3.985,26.631 5.747,39.979 9.755,0.341 20.924,3.406 30.339,5.902 7.007,-11.418 13.885,-22.915 20.634,-34.488 15.71,4.201 30.073,9.699 45.346,15.205 -1.795,13.667 -4.498,27.199 -8.09,40.507 6.177,3.163 12.683,7.037 18.753,10.507 10.977,-7.568 21.101,-18.47 32.34,-26.403 9.989,5.562 31.166,22.648 39.951,30.443 -5.104,11.003 -13.632,24.823 -19.843,35.487 5.086,6.136 14.893,14.891 20.964,20.581 13.568,-4.731 25.378,-11.266 38.106,-15.875 8.265,13.212 18.534,27.613 27.376,40.621 -8.43,8.465 -21.707,20.366 -30.918,27.991 l 10.782,23.18 42.675,-1.201 c 1.936,11.138 5.025,24.034 7.364,35.303 -6.401,6.111 -12.545,13.107 -18.519,19.684 -21.926,0.723 -44.626,0.12 -66.65,0.053 -10.316,-41.77 -36.96,-84.188 -69.027,-112.89 -3.825,-3.423 -11.703,-7.519 -16.492,-11.165 l -0.639,-0.491 c -2.169,-3.036 -6.186,-6.726 -9.477,-8.504 -20.256,-12.926 -43.044,-23.663 -66.475,-29.558 -44.343,-11.156 -95.371,-9.401 -138.519,6.025 -16.289,5.823 -31.687,14.007 -46.467,22.789 -2.498,0.654 -6.075,1.812 -8.535,1.738 7.73,-11.328 5.153,-26.737 -5.843,-34.933 -10.996,-8.197 -26.498,-6.265 -35.146,4.38 -8.648,10.644 -7.364,26.214 2.91,35.298 10.274,9.085 25.884,8.452 35.389,-1.434 0.36,1.853 0.456,3.825 1.809,4.995 l 0.424,0.138 c -5.122,2.441 -13.613,6.041 -17.861,9.667 -36.362,31.042 -56.8,68.899 -69.38,114.166 -22.452,0.614 -44.454,0.199 -66.908,-0.163 -5.426,-5.228 -12.387,-13.443 -17.803,-19.25 0.506,-8.99 3.834,-24.114 5.341,-33.704 14.777,-0.171 28.685,0.495 43.427,1.208 2.497,-8.061 5.845,-16.322 8.897,-24.23 -9.423,-7.633 -19.764,-18.737 -30.228,-27.454 3.647,-8.26 20.214,-32.859 26.065,-42.056 13.141,4.273 26.031,10.665 39.274,15.413 7.174,-6.682 14.701,-14.816 21.903,-21.817 -6.573,-10.501 -16.082,-24.836 -21.379,-35.714 8.65,-9.03 31.121,-25.345 42.077,-33.997 11.421,10.88 21.173,20.221 33.9,29.494 5.235,-3.473 9.915,-5.916 15.464,-8.812 -3.501,-12.079 -7.435,-26.488 -9.192,-38.885 14.188,-6.401 29.559,-11.541 44.291,-16.689 7.514,10.768 14.985,24.199 22.376,35.572 9.351,-2.914 19.962,-4.67 29.599,-6.246 0.49,-11.505 2.769,-27.971 4.071,-39.639 z m 187.658,145.787 c 14.059,-0.593 24.973,-12.474 24.374,-26.532 -0.6,-14.059 -12.486,-24.968 -26.545,-24.361 -14.047,0.607 -24.946,12.483 -24.347,26.531 0.599,14.048 12.469,24.953 26.518,24.362 z"
         id="path3" /><path
         fill="#343333"
         d="m 659.942,307.29 c 6.619,-1.705 13.368,2.271 15.086,8.886 1.718,6.615 -2.243,13.372 -8.854,15.104 -6.631,1.738 -13.413,-2.238 -15.136,-8.873 -1.724,-6.634 2.266,-13.408 8.904,-15.117 z"
         id="path4" /><path
         fill="#343333"
         d="m 727.46,569.993 35.622,-0.207 c 27.419,-0.033 26.664,0.088 51.468,11.169 -2.809,13.371 -7.468,33.216 -9.281,46.198 -13.813,-0.918 -29.607,-1.085 -43.459,-1.003 -2.839,8.263 -7.537,17.43 -11.38,25.344 7.201,6.924 23.732,21.181 29.231,27.456 l -3.404,5.516 c 17.755,0.383 36.131,-0.295 53.553,0.318 4.451,-7.283 9.025,-13.254 17.843,-15.329 15.369,-3.616 30.931,4.49 34.408,20.29 1.598,7.25 0.264,14.838 -3.711,21.107 -3.736,5.767 -9.621,9.801 -16.347,11.207 -17.223,3.528 -29.684,-7.343 -33.924,-23.379 -19.475,-0.078 -42.003,-0.795 -61.097,-0.191 -4.441,6.825 -9.011,13.565 -13.708,20.216 -10.909,-4.367 -26.066,-10.684 -36.541,-16.185 -6.995,6.42 -15.124,13.682 -21.712,20.44 6.086,10.428 15.867,26.258 20.967,36.944 -12.288,8.722 -28.465,21.183 -40.662,28.988 -10.38,-8.632 -20.86,-19.997 -31.228,-27.775 -6.174,3.307 -12.401,6.727 -18.956,9.223 1.209,14.343 4.183,27.686 6.172,41.827 -10.334,3.684 -34.208,12.452 -44.632,14.118 -6.399,-10.058 -14.309,-26.061 -19.525,-36.924 -9.327,1.486 -19.973,2.946 -29.079,5.04 -1.818,13.671 -4.182,27.306 -5.874,40.973 -17.324,0.255 -34.651,0.248 -51.975,-0.022 -1.558,-9.892 -5.46,-32.239 -5.84,-41.398 -9.384,-2.328 -18.908,-4.047 -28.514,-5.146 -6.123,11.813 -13.61,26.122 -20.734,37.277 -9.034,-2.745 -18.595,-6.224 -27.533,-9.374 -4.818,-1.698 -13.204,-4.399 -17.548,-6.402 3.411,-13.954 6.697,-26.367 7.869,-40.766 -6.077,-2.58 -11.563,-4.933 -17.477,-7.855 -10.113,9.026 -20.403,18.418 -30.814,27.037 -8.73,-5.749 -16.788,-11.877 -25.005,-18.332 -4.25,-3.339 -10.02,-7.392 -13.714,-11.183 5.796,-12.765 12.81,-22.797 18.51,-34.835 -7.714,-7.231 -15.302,-14.594 -22.763,-22.086 -12.063,5.484 -24.264,11.54 -36.488,16.51 -4.571,-6.697 -10.869,-13.908 -14.912,-20.041 -18.793,-0.522 -40.05,-0.332 -58.942,-0.12 -2.574,9.021 -6.238,15.928 -14.811,20.648 -6.502,3.566 -14.153,4.407 -21.274,2.339 -7.035,-2.107 -12.934,-6.944 -16.377,-13.432 -3.298,-6.397 -3.924,-13.84 -1.742,-20.699 2.233,-7.039 7.23,-12.869 13.845,-16.151 16.179,-8.016 29.366,0.666 38.902,13.671 17.015,0.126 34.032,-0.042 51.042,-0.502 l -2.857,-5.186 c 9.414,-8.997 19.82,-19.336 29.442,-27.906 -4.009,-8.264 -8.244,-16.728 -12,-25.084 -10.345,0.419 -32.3,1.497 -42.265,3.224 -2.921,-13.023 -7.935,-36.247 -9.501,-49.29 4.108,-1.808 17.031,-7.743 20.533,-8.258 8.489,-1.249 22.696,-0.95 31.725,-0.83 11.086,0.146 25.083,-0.538 35.739,0.26 11.1,44.212 42.468,99.142 82.222,122.848 0.867,0.518 1.747,1.011 2.641,1.479 5.529,3.082 5.267,4.453 9.036,7.972 64.883,44.621 153.769,50.573 224.192,15.845 10.079,-4.971 19.606,-9.197 28.607,-16.131 1.527,-1.97 6.804,-6.811 8.819,-8.737 4.515,0.3 11.766,-6.291 15.194,-9.292 34.743,-30.288 59.213,-70.627 70.024,-115.433 z M 664.042,746.95 c 14.012,-0.835 24.698,-12.866 23.875,-26.879 -0.823,-14.014 -12.844,-24.711 -26.858,-23.9 -14.032,0.812 -24.745,12.851 -23.921,26.882 0.824,14.031 12.873,24.734 26.904,23.897 z m -307.616,-0.304 c 13.839,-2.456 23.046,-15.692 20.536,-29.521 -2.51,-13.829 -15.782,-22.985 -29.601,-20.421 -13.743,2.55 -22.837,15.733 -20.341,29.486 2.497,13.753 15.644,22.899 29.406,20.456 z m 501.219,-37.553 c 7.382,-1.082 12.528,-7.888 11.558,-15.285 -0.97,-7.397 -7.697,-12.646 -15.108,-11.788 -4.894,0.567 -9.103,3.727 -11.014,8.268 -1.911,4.542 -1.227,9.761 1.79,13.656 3.018,3.895 7.899,5.863 12.774,5.149 z m -696.76,-0.206 c 4.779,-0.905 8.699,-4.316 10.254,-8.925 1.556,-4.609 0.505,-9.698 -2.749,-13.314 -3.253,-3.616 -8.204,-5.196 -12.95,-4.134 -7.174,1.605 -11.735,8.665 -10.248,15.864 1.486,7.199 8.47,11.876 15.693,10.509 z"
         id="path7" /><path
         fill="#343333"
         d="m 659.729,709.805 c 6.631,-1.741 13.417,2.228 15.15,8.862 1.732,6.634 -2.246,13.415 -8.883,15.138 -6.623,1.721 -13.388,-2.249 -15.118,-8.87 -1.729,-6.621 2.232,-13.392 8.851,-15.13 z"
         id="path8" /><path
         fill="#343333"
         d="m 349.619,709.271 c 6.8,-1.185 13.287,3.32 14.553,10.105 1.265,6.785 -3.162,13.325 -9.932,14.671 -4.451,0.886 -9.034,-0.691 -11.999,-4.127 -2.964,-3.435 -3.853,-8.2 -2.326,-12.474 1.527,-4.273 5.234,-7.396 9.704,-8.175 z"
         id="path9" /><path
         fill="#343333"
         d="m 103.11,441.22 c -6.1022,15.242 -16.9067,25.63 -34.4391,21.398 -6.9502,-1.731 -12.9156,-6.178 -16.5597,-12.344 -12.6379,-21.177 7.4408,-46.916 31.2084,-39.918 9.9023,2.916 13.8722,8.721 18.7484,17.196 l 33.273,-0.027 c 7.491,0.001 22.723,-0.381 29.383,1.529 22.902,6.568 33.887,42.267 55.664,49.252 3.414,1.095 24.444,0.665 29.415,0.658 l 67.351,0.054 c 6.507,-0.004 35.815,-0.939 40.079,1.231 0.057,3.849 0.255,8.454 0.176,12.238 -31.965,-0.185 -64.321,1.021 -96.336,0.1 -12.867,-0.371 -31.012,1.248 -43.343,-0.573 -4.377,-0.632 -8.533,-2.324 -12.106,-4.929 -7.408,-5.446 -14.56,-14.454 -20.711,-21.372 -7.119,-8.008 -14.36,-16.447 -21.995,-23.951 -19.889,-0.801 -39.891,-0.565 -59.808,-0.542 z m -24.8332,8.779 c 7.2132,-1.397 11.9742,-8.319 10.6978,-15.555 -1.2765,-7.235 -8.1188,-12.111 -15.3745,-10.955 -4.8021,0.765 -8.8184,4.061 -10.5064,8.621 -1.688,4.56 -0.7855,9.676 2.3611,13.384 3.1466,3.707 8.048,5.429 12.822,4.505 z"
         id="path10" /><path
         fill="#343333"
         d="m 657.052,541.338 c 11.304,-1.142 24.688,-0.778 36.176,-0.795 l 55.79,-0.058 36.651,-0.019 c 7.757,-10e-4 15.992,-0.521 23.663,0.685 6.973,1.097 11.581,3.533 17.002,7.986 13.402,11.008 55.228,57.566 67.113,62.307 5.684,2.268 13.673,1.198 19.688,1.078 10.521,-15.337 25.729,-21.753 42.228,-10.185 5.614,3.88 9.459,9.83 10.69,16.542 5.96,33.624 -48.954,47.397 -54.322,7.321 -4.242,0.023 -18.633,0.482 -21.777,-1.019 -15.288,-7.301 -33.127,-29.089 -45.854,-40.407 -9.994,-8.888 -22.962,-24.5 -33.421,-30.867 -50.186,-1.027 -103.905,1.82 -153.677,-0.744 -0.207,-3.557 -0.007,-8.185 0.05,-11.825 z m 284.573,95.65 c 7.282,-1.533 11.941,-8.682 10.401,-15.962 -1.539,-7.281 -8.691,-11.933 -15.971,-10.388 -7.271,1.543 -11.916,8.686 -10.379,15.958 1.538,7.272 8.676,11.923 15.949,10.392 z"
         id="path11" /><path
         fill="#343333"
         d="m 913.128,427.589 c 6.521,-15.214 21.472,-22.506 37.073,-15.814 6.63,2.834 11.837,8.222 14.443,14.945 2.484,6.4 2.247,13.536 -0.657,19.756 -11.215,24.451 -43.808,21.924 -52.295,-4.854 l -35.431,-0.408 c -10.527,-0.103 -22.525,-2.532 -30.437,5.515 -13.536,13.662 -24.709,30.809 -40.36,42.159 -4.578,3.321 -14.569,3.51 -20.102,3.439 -39.545,-0.507 -79.334,0.534 -118.849,0.009 -3.071,-0.046 -6.141,-0.166 -9.206,-0.359 -0.218,-3.903 -0.096,-8.415 -0.078,-12.37 14.062,-1.19 30.409,-0.853 44.72,-0.908 l 59.258,-0.321 c 24.821,0.021 34.347,6.482 51.617,-14.352 11.446,-13.809 24.845,-35.837 44.053,-36.208 7.242,-0.204 13.459,-0.252 20.673,-0.218 11.859,0.116 23.719,0.112 35.578,-0.011 z m 27.954,22.31 c 7.264,-1.373 12.04,-8.374 10.669,-15.638 -1.371,-7.264 -8.37,-12.042 -15.634,-10.674 -7.268,1.369 -12.049,8.372 -10.678,15.64 1.372,7.267 8.376,12.046 15.643,10.672 z"
         id="path12" /><path
         fill="#343333"
         d="m 101.47,612.587 c 26.656,0.078 20.477,-1.462 38.875,-17.025 13.389,-11.326 44.414,-45.815 58.004,-51.685 7.085,-3.06 57.507,-1.859 67.976,-1.862 30.318,-0.184 60.637,-0.148 90.955,0.109 0.188,3.841 0.527,8.38 0.489,12.17 -8.066,1.538 -39.509,0.807 -49.267,0.801 l -105.525,0.114 c -6.194,4.437 -16.016,14.211 -21.835,19.743 -11.497,10.995 -23.069,21.91 -34.717,32.744 -19.837,18.436 -17.21,17.828 -43.985,18.659 -1.195,7.355 -3.8383,14.167 -9.9368,18.581 -19.1893,13.889 -48.3189,-0.973 -43.8172,-25.889 3.6216,-20.044 25.9085,-28.658 42.2413,-17.544 4.7908,3.26 7.2735,6.392 10.5427,11.084 z m -23.2128,24.435 c 7.2523,-1.39 12.0784,-8.304 10.8839,-15.591 -1.1945,-7.287 -7.9751,-12.297 -15.2918,-11.3 -4.9114,0.67 -9.0719,3.954 -10.8649,8.575 -1.7929,4.621 -0.9355,9.852 2.239,13.659 3.1745,3.807 8.1656,5.59 13.0338,4.657 z"
         id="path13" /><path
         fill="#343333"
         d="m 122.378,523.127 c -9.683,38.918 -62.2373,22.251 -53.5766,-11.492 1.7979,-6.833 6.2482,-12.666 12.3635,-16.206 16.8948,-9.922 31.5631,-1.716 40.3471,13.85 45.865,-1.037 93.383,-0.232 139.401,-0.165 l 59.571,0.082 c 5.273,0.008 34.033,-0.528 36.738,1.07 0,3.046 0.19,9.974 -0.126,12.7 -26.937,0.942 -53.329,0.081 -80.269,0.067 z m -23.3873,8.743 c 7.2053,-1.855 11.5323,-9.212 9.6513,-16.41 -1.881,-7.199 -9.2528,-11.499 -16.4446,-9.592 -7.1548,1.897 -11.4279,9.223 -9.5568,16.385 1.871,7.162 9.1816,11.462 16.3501,9.617 z"
         id="path14" /><path
         fill="#343333"
         d="m 893.178,509.192 c 4.231,-8.132 8.47,-13.495 17.536,-16.436 13.719,-4.45 30.502,3.314 34.498,17.537 4.035,14.699 -3.707,30.26 -18.76,34.273 -7.356,1.927 -15.174,0.891 -21.773,-2.886 -6.569,-3.842 -10.755,-9.816 -12.584,-17.155 -0.137,-0.546 -0.269,-1.094 -0.394,-1.643 l -155.949,-0.266 c -26.025,-0.022 -52.608,0.91 -78.498,-0.107 -0.271,-4.102 -0.155,-8.346 -0.114,-12.468 7.194,-1.416 21.853,-1.249 29.536,-1.258 l 46.817,0.275 c 41.361,0.281 82.724,0.277 124.085,-0.011 11.626,-0.079 24.206,0.396 35.6,0.145 z m 29.511,22.513 c 4.661,-1.884 7.146,-3.185 9.318,-8.131 0.433,-0.998 0.827,-2.012 1.18,-3.041 -1.672,-10.542 -5.895,-15.459 -17.198,-14.881 -4.434,2.099 -8.089,4.324 -9.899,9.287 -1.125,3.081 -0.966,6.483 0.441,9.446 3.212,6.78 9.542,7.604 16.158,7.32 z"
         id="path15" /><g
         id="g42"
         transform="matrix(0.45903161,0,0,0.46101259,389.37734,400.17436)"><path
           fill="#006495"
           d="M 69.1375,0 H 443.689 c 2.105,0.896979 5.112,0.867125 7.4,1.37447 2.931,0.64993 5.813,1.43237 8.66,2.39208 20.346,6.89425 36.976,21.82805 46.01,41.31785 1.528,3.3263 2.841,6.7451 3.892,10.2559 0.931,3.1133 1.454,7.0014 2.349,9.9542 V 447.106 l -0.076,0.243 c -1.266,4.168 -1.687,7.909 -3.243,12.324 -6.401,18.392 -19.386,33.762 -36.451,43.144 -7.334,3.945 -13.819,6.249 -21.971,7.981 -1.126,0.239 -4.131,0.72 -4.827,1.202 H 67.571 c -1.0749,-0.594 -8.201,-1.983 -10.0741,-2.473 -3.652,-0.932 -7.2132,-2.189 -10.641,-3.757 C 24.643,496.023 8.22969,476.496 2.44829,452.937 1.77505,450.21 1.35903,447.596 0.884066,444.854 0.509556,442.691 0.821145,437.428 0,435.662 V 76.3046 C 0.60942,75.2396 0.490366,71.1687 0.654094,69.5572 1.61063,60.1426 3.96365,51.819 8.12189,43.3657 17.3557,24.4677 33.8357,10.1042 53.8179,3.53833 56.6323,2.60245 59.4583,1.96821 62.3538,1.37239 64.4856,0.933706 67.1364,0.763433 69.1375,0 Z"
           id="path1-0" /><path
           fill="#fefefe"
           d="m 255.393,33.7829 c 3.754,-0.3737 8.647,1.8924 11.296,4.3802 2.831,2.6578 6.228,8.0057 8.553,11.3149 4.426,6.382 8.768,12.6422 13.633,18.7008 14.702,18.2372 29.116,37.0202 45.531,53.7702 11.181,11.409 21.973,23.464 33.329,34.671 30.214,29.704 62.865,56.824 97.609,81.076 2.851,1.98 5.742,3.648 8.682,5.482 1.555,0.97 3.239,2.781 4.28,4.311 3.517,5.222 4.75,11.644 0.733,17.065 -4.126,5.569 -10.991,7.655 -16.396,11.561 -6.119,4.421 -12.205,8.962 -18.208,13.524 -13.248,10.077 -26.202,20.534 -38.846,31.359 -37.181,31.861 -71.535,66.88 -102.676,104.666 -8.111,9.885 -16.004,19.946 -23.672,30.177 -4.596,6.175 -9.292,13.566 -14.494,19.105 -1.928,2.054 -4.157,2.854 -6.867,3.323 -3.626,0.118 -11.522,-1.323 -13.497,-4.638 -11.186,-18.773 -25.19,-35.537 -38.627,-52.703 -1.827,-2.333 -3.637,-4.799 -5.545,-7.061 C 165.9,373.808 127.982,336.986 86.9345,303.864 76.259,295.283 65.3739,286.967 54.2891,278.923 c -3.4882,-2.544 -7.0056,-5.047 -10.5514,-7.51 -4.669,-3.258 -10.7896,-6.996 -12.1525,-13.139 -1.2951,-5.839 1.8963,-10.96 6.3979,-14.482 5.5398,-4.333 11.508,-8.307 17.2841,-12.422 9.0554,-6.463 17.9541,-13.142 26.6884,-20.033 12.3407,-9.769 24.3784,-19.915 36.0954,-30.424 31.63,-28.48 61.139,-59.23 88.293,-92.0051 13.928,-16.7118 26.442,-34.3829 40.234,-51.1407 1.532,-1.8615 6.476,-3.4677 8.815,-3.9843 z"
           id="path2-9" /><path
           fill="#006495"
           d="m 255.412,91.3694 c 0.118,-0.0201 0.236,-0.0401 0.354,-0.0602 8.709,-0.1127 19.267,5.1611 25.919,10.1328 46.329,35.242 87.719,76.541 123.064,122.791 6.038,7.965 16.567,20.813 17.904,30.368 1.36,9.719 -9.835,24.954 -15.4,32.65 -4.771,6.509 -10.131,12.49 -15.304,18.665 -13.955,16.656 -29.254,32.934 -44.851,48.047 -24.045,23.3 -49.537,46.777 -78.028,64.514 -2.689,1.674 -7.917,2.817 -11.04,3.259 -2.416,0.05 -4.527,-0.204 -6.818,-1.006 -3.473,-1.215 -6.74,-3.305 -9.882,-5.199 -13.798,-8.316 -26.333,-18.525 -38.412,-29.138 -35.513,-31.201 -70.011,-63.877 -98.384,-101.861 -3.804,-5.093 -10.1905,-13.089 -12.604,-18.582 -1.3104,-2.983 -2.0026,-6.52 -2.1512,-9.764 -0.6129,-13.387 28.3142,-45.582 37.7352,-56.248 15.589,-17.447 31.981,-34.16 49.121,-50.085 16.591,-15.552 33.402,-30.771 51.789,-44.201 9.009,-6.5803 15.394,-13.5647 26.988,-14.2826 z"
           id="path3-4" /><path
           fill="#fefefe"
           d="m 256.153,101.846 c 8.25,-1.373 21.404,8.82 27.639,13.747 46.003,36.357 88.805,77.944 122.718,125.96 6.344,8.981 8.303,19.012 1.793,28.266 -8.833,13.674 -19.599,25.375 -29.549,38.162 -2.014,2.588 -4.413,4.886 -6.627,7.301 -27.086,28.168 -54.354,56.859 -86.106,79.851 -9.723,7.041 -15.423,14.331 -28.357,15.883 -8.271,0.116 -12.875,-3.613 -19.149,-8.336 -3.126,-2.346 -6.229,-4.721 -9.31,-7.125 -41.465,-32.18 -78.953,-69.182 -111.672,-110.223 -6.271,-7.99 -15.507,-16.907 -16.72,-27.524 -1.0327,-9.046 6.022,-17.713 11.303,-24.239 2.227,-2.751 4.346,-5.735 6.585,-8.532 32.689,-40.314 70.057,-76.598 111.317,-108.086 4.523,-3.386 9.032,-6.721 13.659,-9.965 4.282,-3.001 7.288,-4.56 12.476,-5.14 z"
           id="path4-8" /><path
           fill="#006495"
           d="m 204.665,221.56 c 0.617,-0.03 1.533,-0.132 2.055,0.178 2.611,1.552 5.228,3.435 7.769,5.084 4.417,2.867 9.025,5.5 13.354,8.47 -4.011,0.585 -12.731,3.28 -16.669,4.708 -9.675,3.507 -16.291,8.334 -20.657,17.741 0.334,1.332 0.728,2.879 1.293,4.125 5.031,11.11 24.487,14.936 35.307,16.933 23.973,4.508 48.633,3.837 72.326,-1.969 8.777,-2.167 26.42,-7.158 29.909,-16.712 4.203,-11.508 -10.063,-18.052 -18.8,-21.101 -4.857,0.78 -8.163,1.606 -12.91,2.948 -1.711,-5.9 -4.391,-12.919 -6.546,-18.711 8.562,2.659 20.898,5.626 29.722,7.537 3.533,0.864 8.522,1.582 11.797,2.612 -3.797,0.733 -5.705,1.223 -9.272,2.772 7.953,4.609 17.777,9.182 20.161,19.133 0.784,3.276 -0.492,7.485 -2.484,10.296 -8.88,12.527 -26.558,16.723 -40.685,20.11 -34.553,7.454 -72.577,6.887 -106.447,-3.642 -8.437,-2.543 -15.94,-5.615 -23.452,-10.137 -10.463,-6.298 -15.964,-16.566 -7.842,-27.406 7.977,-10.645 29.097,-20.722 42.071,-22.969 z"
           id="path5-8" /><path
           fill="#006495"
           d="m 255.813,135.44 c 0.569,0.613 23.331,64.088 26.481,72.044 -5.836,-0.026 -12.274,0.261 -18.227,0.302 -0.483,3.616 0.215,11.935 0.344,16.103 l 1.318,33.611 c 0.271,6.125 0.744,12.402 0.771,18.529 -2.772,0.449 -5.942,0.598 -8.746,0.697 -4.494,0.073 -8.477,-0.229 -12.955,-0.551 -0.16,-3.705 0.251,-7.789 0.423,-11.551 l 1.008,-22.173 1.011,-22.501 c 0.171,-3.938 0.187,-8.01 0.588,-11.914 -5.653,-0.469 -11.017,-0.162 -16.655,-0.405 2.069,-6.745 5.004,-14.534 7.355,-21.26 5.974,-17.092 11.94,-33.638 17.284,-50.931 z"
           id="path6-2" /><path
           fill="#006495"
           d="m 244.275,294.973 c 7.999,0.465 15.197,0.217 23.13,0.155 1.417,18.733 1.662,37.846 2.793,56.62 0.257,4.253 0.213,8.415 0.572,12.686 -1.311,0.079 -2.761,0.235 -4.081,0.35 -9.496,0.741 -16.295,0.077 -25.724,-0.576 0.45,-2.971 0.483,-7.39 0.698,-10.483 0.448,-6.462 0.718,-12.925 0.94,-19.398 z"
           id="path7-4" /></g><text
         xml:space="preserve"
         id="text43"
         style="font-size:100.259px;text-align:start;writing-mode:lr-tb;direction:ltr;text-anchor:start;white-space:pre;fill:#001439;fill-opacity:1"
         transform="rotate(0.04343536,508.01904,256.07981)"><textPath
           xlink:href="#path43"
           id="textPath44"
           style="font-style:normal;font-variant:normal;font-weight:bold;font-stretch:normal;font-size:100.259px;font-family:'Agency FB';-inkscape-font-specification:'Agency FB Bold';fill:#001439;fill-opacity:1">FACULTY OF TECHNOLOGY</textPath></text><path
         style="opacity:0;fill:#006495;fill-opacity:1;stroke-width:1.07997"
         id="path43"
         d="M 242.13566,-339.38428 A 370.77448,370.77448 0 0 1 -171.76228,-661.28863 370.77448,370.77448 0 0 1 150.12174,-1075.2024 370.77448,370.77448 0 0 1 564.0513,-753.3387 370.77448,370.77448 0 0 1 242.20796,-339.39333 L 196.14677,-707.29559 Z"
         transform="rotate(120.74138)" /><path
         style="opacity:0;fill:#006495;fill-opacity:1;stroke-width:1.31014"
         id="path45"
         d="M -677.75008,404.74808 A 449.7977,449.7977 0 0 1 -1179.8622,14.236204 449.7977,449.7977 0 0 1 -789.37495,-487.89505 449.7977,449.7977 0 0 1 -287.22451,-97.432514 449.7977,449.7977 0 0 1 -677.66238,404.73711 l -55.87821,-446.313339 z"
         transform="matrix(-0.6509229,-0.75914384,-0.75914384,0.6509229,0,0)" /><text
         xml:space="preserve"
         style="font-style:normal;font-variant:normal;font-weight:bold;font-stretch:normal;font-size:100.259px;font-family:'Agency FB';-inkscape-font-specification:'Agency FB Bold';text-align:start;letter-spacing:6.37099px;writing-mode:lr-tb;direction:ltr;text-anchor:start;fill:#001439;fill-opacity:1;stroke-width:0.683583"
         id="text45"
         transform="translate(-2.0471949e-5,-4.8070821e-5)"><textPath
           xlink:href="#path45"
           id="textPath45"
           style="letter-spacing:6.37099px">IEEE STUDENT BRANCH</textPath></text></g></g></svg>
